<svg width="269" height="56" viewBox="0 0 269 56" fill="none" xmlns="http://www.w3.org/2000/svg">
<path d="M32.932 46.568H15.116L12.26 55H0.0880001L17.36 7.264H30.824L48.096 55H35.788L32.932 46.568ZM29.94 37.592L24.024 20.116L18.176 37.592H29.94ZM64.9807 22.428C66.0687 20.66 67.6327 19.232 69.6727 18.144C71.7127 17.056 74.0474 16.512 76.6767 16.512C79.8047 16.512 82.6381 17.3053 85.1767 18.892C87.7154 20.4787 89.7101 22.7453 91.1607 25.692C92.6567 28.6387 93.4047 32.0613 93.4047 35.96C93.4047 39.8587 92.6567 43.304 91.1607 46.296C89.7101 49.2427 87.7154 51.532 85.1767 53.164C82.6381 54.7507 79.8047 55.544 76.6767 55.544C74.0021 55.544 71.6674 55.0227 69.6727 53.98C67.6781 52.892 66.1141 51.464 64.9807 49.696V55H53.3527V4.68H64.9807V22.428ZM81.5727 35.96C81.5727 33.0587 80.7567 30.792 79.1247 29.16C77.5381 27.4827 75.5661 26.644 73.2087 26.644C70.8967 26.644 68.9247 27.4827 67.2927 29.16C65.7061 30.8373 64.9127 33.1267 64.9127 36.028C64.9127 38.9293 65.7061 41.2187 67.2927 42.896C68.9247 44.5733 70.8967 45.412 73.2087 45.412C75.5207 45.412 77.4927 44.5733 79.1247 42.896C80.7567 41.1733 81.5727 38.8613 81.5727 35.96ZM105.353 13.112C103.313 13.112 101.636 12.5227 100.321 11.344C99.0517 10.12 98.4171 8.624 98.4171 6.856C98.4171 5.04267 99.0517 3.54666 100.321 2.368C101.636 1.144 103.313 0.531996 105.353 0.531996C107.348 0.531996 108.98 1.144 110.249 2.368C111.564 3.54666 112.221 5.04267 112.221 6.856C112.221 8.624 111.564 10.12 110.249 11.344C108.98 12.5227 107.348 13.112 105.353 13.112ZM111.133 17.056V55H99.5051V17.056H111.133Z" fill="#0B40F9"/>
<path d="M32.932 46.568L34.8263 45.9264L34.3662 44.568H32.932V46.568ZM15.116 46.568V44.568H13.6818L13.2217 45.9264L15.116 46.568ZM12.26 55V57H13.6942L14.1543 55.6416L12.26 55ZM0.0880001 55L-1.79268 54.3195L-2.76254 57H0.0880001V55ZM17.36 7.264V5.264H15.9568L15.4793 6.58352L17.36 7.264ZM30.824 7.264L32.7047 6.58352L32.2272 5.264H30.824V7.264ZM48.096 55V57H50.9465L49.9767 54.3195L48.096 55ZM35.788 55L33.8937 55.6416L34.3538 57H35.788V55ZM29.94 37.592V39.592H32.7285L31.8344 36.9507L29.94 37.592ZM24.024 20.116L25.9184 19.4747L24.013 13.8462L22.1274 19.4813L24.024 20.116ZM18.176 37.592L16.2794 36.9573L15.3977 39.592H18.176V37.592ZM32.932 44.568H15.116V48.568H32.932V44.568ZM13.2217 45.9264L10.3657 54.3584L14.1543 55.6416L17.0103 47.2096L13.2217 45.9264ZM12.26 53H0.0880001V57H12.26V53ZM1.96868 55.6805L19.2407 7.94447L15.4793 6.58352L-1.79268 54.3195L1.96868 55.6805ZM17.36 9.264H30.824V5.264H17.36V9.264ZM28.9433 7.94447L46.2153 55.6805L49.9767 54.3195L32.7047 6.58352L28.9433 7.94447ZM48.096 53H35.788V57H48.096V53ZM37.6823 54.3584L34.8263 45.9264L31.0377 47.2096L33.8937 55.6416L37.6823 54.3584ZM31.8344 36.9507L25.9184 19.4747L22.1296 20.7573L28.0456 38.2333L31.8344 36.9507ZM22.1274 19.4813L16.2794 36.9573L20.0726 38.2267L25.9206 20.7507L22.1274 19.4813ZM18.176 39.592H29.94V35.592H18.176V39.592ZM64.9807 22.428H62.9807V29.4941L66.684 23.4762L64.9807 22.428ZM69.6727 18.144L68.7315 16.3793L68.7315 16.3793L69.6727 18.144ZM85.1767 18.892L84.1167 20.588L84.1167 20.588L85.1767 18.892ZM91.1607 25.692L89.3664 26.5754L89.3718 26.5864L89.3774 26.5974L91.1607 25.692ZM91.1607 46.296L89.3718 45.4016L89.3664 45.4126L91.1607 46.296ZM85.1767 53.164L86.2367 54.86L86.2475 54.8532L86.2582 54.8464L85.1767 53.164ZM69.6727 53.98L68.715 55.7358L68.7305 55.7443L68.7462 55.7525L69.6727 53.98ZM64.9807 49.696L66.6645 48.6167L62.9807 42.87V49.696H64.9807ZM64.9807 55V57H66.9807V55H64.9807ZM53.3527 55H51.3527V57H53.3527V55ZM53.3527 4.68V2.68H51.3527V4.68H53.3527ZM64.9807 4.68H66.9807V2.68H64.9807V4.68ZM79.1247 29.16L77.6718 30.5344L77.6909 30.5546L77.7105 30.5742L79.1247 29.16ZM67.2927 29.16L65.8593 27.7653L65.8495 27.7754L65.8398 27.7856L67.2927 29.16ZM67.2927 42.896L65.8398 44.2704L65.8495 44.2806L65.8593 44.2907L67.2927 42.896ZM79.1247 42.896L80.5582 44.2907L80.5675 44.2812L80.5766 44.2715L79.1247 42.896ZM66.684 23.4762C67.5655 22.0438 68.8505 20.8492 70.6139 19.9087L68.7315 16.3793C66.4149 17.6148 64.5719 19.2762 63.2774 21.3798L66.684 23.4762ZM70.6139 19.9087C72.3266 18.9953 74.3301 18.512 76.6767 18.512V14.512C73.7646 14.512 71.0989 15.1167 68.7315 16.3793L70.6139 19.9087ZM76.6767 18.512C79.4475 18.512 81.9106 19.2091 84.1167 20.588L86.2367 17.196C83.3656 15.4015 80.1619 14.512 76.6767 14.512V18.512ZM84.1167 20.588C86.3095 21.9585 88.0636 23.9291 89.3664 26.5754L92.9551 24.8086C91.3565 21.5616 89.1213 18.9989 86.2367 17.196L84.1167 20.588ZM89.3774 26.5974C90.7075 29.2172 91.4047 32.3196 91.4047 35.96H95.4047C95.4047 31.803 94.606 28.0601 92.9441 24.7866L89.3774 26.5974ZM91.4047 35.96C91.4047 39.5995 90.7078 42.7298 89.3719 45.4016L92.9496 47.1904C94.6057 43.8782 95.4047 40.1179 95.4047 35.96H91.4047ZM89.3664 45.4126C88.0616 48.0629 86.3013 50.0634 84.0952 51.4816L86.2582 54.8464C89.1295 53.0006 91.3585 50.4224 92.9551 47.1794L89.3664 45.4126ZM84.1167 51.468C81.9106 52.8469 79.4475 53.544 76.6767 53.544V57.544C80.1619 57.544 83.3656 56.6545 86.2367 54.86L84.1167 51.468ZM76.6767 53.544C74.2642 53.544 72.2587 53.075 70.5992 52.2075L68.7462 55.7525C71.0761 56.9703 73.7399 57.544 76.6767 57.544V53.544ZM70.6304 52.2242C68.9059 51.2836 67.6018 50.0789 66.6645 48.6167L63.297 50.7753C64.6263 52.8491 66.4502 54.5004 68.715 55.7358L70.6304 52.2242ZM62.9807 49.696V55H66.9807V49.696H62.9807ZM64.9807 53H53.3527V57H64.9807V53ZM55.3527 55V4.68H51.3527V55H55.3527ZM53.3527 6.68H64.9807V2.68H53.3527V6.68ZM62.9807 4.68V22.428H66.9807V4.68H62.9807ZM83.5727 35.96C83.5727 32.672 82.6367 29.8436 80.5389 27.7458L77.7105 30.5742C78.8767 31.7404 79.5727 33.4453 79.5727 35.96H83.5727ZM80.5777 27.7856C78.6044 25.6995 76.1027 24.644 73.2087 24.644V28.644C75.0294 28.644 76.4717 29.2658 77.6718 30.5344L80.5777 27.7856ZM73.2087 24.644C70.3494 24.644 67.8626 25.7063 65.8593 27.7653L68.7262 30.5547C69.9868 29.259 71.4441 28.644 73.2087 28.644V24.644ZM65.8398 27.7856C63.8177 29.9232 62.9127 32.7526 62.9127 36.028H66.9127C66.9127 33.5007 67.5944 31.7514 68.7457 30.5344L65.8398 27.7856ZM62.9127 36.028C62.9127 39.3034 63.8177 42.1328 65.8398 44.2704L68.7457 41.5216C67.5944 40.3046 66.9127 38.5553 66.9127 36.028H62.9127ZM65.8593 44.2907C67.8626 46.3497 70.3494 47.412 73.2087 47.412V43.412C71.4441 43.412 69.9868 42.797 68.7262 41.5013L65.8593 44.2907ZM73.2087 47.412C76.0681 47.412 78.5548 46.3497 80.5582 44.2907L77.6913 41.5013C76.4306 42.797 74.9734 43.412 73.2087 43.412V47.412ZM80.5766 44.2715C82.6354 42.0984 83.5727 39.2528 83.5727 35.96H79.5727C79.5727 38.4698 78.8781 40.2483 77.6728 41.5205L80.5766 44.2715ZM100.321 11.344L98.9328 12.7837L98.9589 12.8089L98.986 12.8331L100.321 11.344ZM100.321 2.368L101.682 3.83358L101.684 3.83178L100.321 2.368ZM110.249 2.368L108.861 3.80769L108.887 3.83289L108.914 3.85713L110.249 2.368ZM110.249 11.344L111.61 12.8096L111.612 12.8078L110.249 11.344ZM111.133 17.056H113.133V15.056H111.133V17.056ZM111.133 55V57H113.133V55H111.133ZM99.5051 55H97.5051V57H99.5051V55ZM99.5051 17.056V15.056H97.5051V17.056H99.5051ZM105.353 11.112C103.724 11.112 102.547 10.6539 101.656 9.85486L98.986 12.8331C100.724 14.3914 102.902 15.112 105.353 15.112V11.112ZM101.709 9.90431C100.832 9.05838 100.417 8.08258 100.417 6.856H96.4171C96.4171 9.16542 97.2714 11.1816 98.9328 12.7837L101.709 9.90431ZM100.417 6.856C100.417 5.56944 100.841 4.6143 101.682 3.83358L98.9602 0.90241C97.2623 2.47903 96.4171 4.51589 96.4171 6.856H100.417ZM101.684 3.83178C102.578 2.99965 103.745 2.532 105.353 2.532V-1.468C102.881 -1.468 100.694 -0.711659 98.9582 0.904209L101.684 3.83178ZM105.353 2.532C106.904 2.532 108.014 2.99119 108.861 3.80769L111.637 0.928308C109.945 -0.703196 107.792 -1.468 105.353 -1.468V2.532ZM108.914 3.85713C109.793 4.64492 110.221 5.59349 110.221 6.856H114.221C114.221 4.49184 113.335 2.44841 111.584 0.878858L108.914 3.85713ZM110.221 6.856C110.221 8.05878 109.802 9.02768 108.886 9.88021L111.612 12.8078C113.326 11.2123 114.221 9.18921 114.221 6.856H110.221ZM108.888 9.87841C108.045 10.6616 106.925 11.112 105.353 11.112V15.112C107.771 15.112 109.915 14.3838 111.61 12.8096L108.888 9.87841ZM109.133 17.056V55H113.133V17.056H109.133ZM111.133 53H99.5051V57H111.133V53ZM101.505 55V17.056H97.5051V55H101.505ZM99.5051 19.056H111.133V15.056H99.5051V19.056ZM127.448 53.776L126.689 55.6266L126.689 55.6266L127.448 53.776ZM120.784 48.744L119.172 49.9282L119.18 49.9387L119.188 49.9492L120.784 48.744ZM118.2 40.72V38.72H116.141L116.201 40.7779L118.2 40.72ZM130.576 40.72L132.565 40.5159L132.381 38.72H130.576V40.72ZM132.412 44.8L131.063 46.277L131.081 46.2933L131.099 46.3092L132.412 44.8ZM140.572 45.004L141.795 46.5866L141.817 46.5695L141.838 46.5519L140.572 45.004ZM140.844 38.748L139.43 40.1622L139.45 40.1824L139.471 40.202L140.844 38.748ZM137.92 36.844L137.114 38.6746L137.127 38.6804L137.14 38.6859L137.92 36.844ZM133.024 35.144L132.434 37.0549L132.443 37.0579L132.453 37.0608L133.024 35.144ZM125.476 32.288L124.598 34.0851L125.476 32.288ZM120.444 28.072L122.039 26.8658L122.039 26.8658L120.444 28.072ZM123.164 10.392L124.389 11.9731L124.395 11.9677L124.402 11.9623L123.164 10.392ZM148.46 10.392L147.221 11.9623L147.228 11.9677L147.235 11.9731L148.46 10.392ZM153.628 20.864V22.864H155.731L155.625 20.7631L153.628 20.864ZM141.048 20.864L139.051 20.9814L139.162 22.864H141.048V20.864ZM139.348 17.26L138.035 18.7692L138.054 18.7858L138.074 18.8019L139.348 17.26ZM131.936 17.056L133.224 18.5858L133.247 18.5665L133.269 18.5465L131.936 17.056ZM132.82 23.856L133.841 22.1363L133.841 22.1363L132.82 23.856ZM139.62 26.644L140.261 24.7494L140.248 24.7452L140.235 24.7411L139.62 26.644ZM147.1 29.636L146.205 31.4249L146.214 31.429L146.222 31.4331L147.1 29.636ZM152.132 33.784L150.551 35.0091L150.551 35.0091L152.132 33.784ZM152.132 48.2L150.442 47.1307L150.434 47.1431L150.426 47.1557L152.132 48.2ZM146.148 53.504L145.253 51.7151L145.253 51.7151L146.148 53.504ZM136.832 53.476C133.558 53.476 130.694 52.945 128.206 51.9254L126.689 55.6266C129.732 56.8737 133.124 57.476 136.832 57.476V53.476ZM128.206 51.9254C125.748 50.9178 123.825 49.4526 122.38 47.5388L119.188 49.9492C121.097 52.478 123.617 54.3676 126.689 55.6266L128.206 51.9254ZM122.396 47.5598C121.036 45.7089 120.279 43.4409 120.199 40.6621L116.201 40.7779C116.301 44.2551 117.268 47.3364 119.172 49.9282L122.396 47.5598ZM118.2 42.72H130.576V38.72H118.2V42.72ZM128.586 40.9241C128.804 43.0497 129.571 44.9146 131.063 46.277L133.76 43.323C133.167 42.7814 132.71 41.9263 132.565 40.5159L128.586 40.9241ZM131.099 46.3092C132.58 47.5966 134.44 48.16 136.492 48.16V44.16C135.189 44.16 134.329 43.8168 133.724 43.2908L131.099 46.3092ZM136.492 48.16C138.497 48.16 140.338 47.7118 141.795 46.5866L139.349 43.4214C138.81 43.8375 137.932 44.16 136.492 44.16V48.16ZM141.838 46.5519C143.346 45.3185 144.068 43.6153 144.068 41.672H140.068C140.068 42.5394 139.792 43.0575 139.305 43.4561L141.838 46.5519ZM144.068 41.672C144.068 39.9741 143.455 38.4632 142.217 37.294L139.471 40.202C139.864 40.5741 140.068 41.0126 140.068 41.672H144.068ZM142.258 37.3338C141.276 36.3522 140.074 35.5839 138.699 35.0021L137.14 38.6859C138.123 39.1014 138.87 39.6025 139.43 40.1622L142.258 37.3338ZM138.725 35.0134C137.478 34.4647 135.753 33.8702 133.595 33.2272L132.453 37.0608C134.556 37.6872 136.095 38.226 137.114 38.6746L138.725 35.0134ZM133.614 33.233C130.587 32.2983 128.177 31.3815 126.353 30.4909L124.598 34.0851C126.673 35.0985 129.295 36.0856 132.434 37.0549L133.614 33.233ZM126.353 30.4909C124.707 29.6868 123.269 28.4928 122.039 26.8658L118.848 29.2782C120.429 31.3685 122.346 32.9852 124.598 34.0851L126.353 30.4909ZM122.039 26.8658C120.963 25.4421 120.336 23.4771 120.336 20.796H116.336C116.336 24.0989 117.114 26.9845 118.848 29.2782L122.039 26.8658ZM120.336 20.796C120.336 16.907 121.708 14.0496 124.389 11.9731L121.939 8.8109C118.182 11.7211 116.336 15.7996 116.336 20.796H120.336ZM124.402 11.9623C127.185 9.76782 130.906 8.584 135.744 8.584V4.584C130.246 4.584 125.58 5.93885 121.925 8.82167L124.402 11.9623ZM135.744 8.584C140.682 8.584 144.445 9.77238 147.221 11.9623L149.698 8.82167C146.038 5.93428 141.323 4.584 135.744 4.584V8.584ZM147.235 11.9731C149.941 14.0696 151.43 16.9913 151.63 20.9649L155.625 20.7631C155.373 15.7607 153.415 11.7011 149.685 8.8109L147.235 11.9731ZM153.628 18.864H141.048V22.864H153.628V18.864ZM143.044 20.7466C142.926 18.737 142.155 16.9848 140.622 15.7181L138.074 18.8019C138.626 19.2578 138.988 19.9083 139.051 20.9814L143.044 20.7466ZM140.66 15.7508C139.19 14.4721 137.358 13.9 135.336 13.9V17.9C136.577 17.9 137.421 18.2346 138.035 18.7692L140.66 15.7508ZM135.336 13.9C133.55 13.9 131.905 14.3994 130.602 15.5655L133.269 18.5465C133.689 18.1713 134.311 17.9 135.336 17.9V13.9ZM130.647 15.5262C129.226 16.7233 128.644 18.4158 128.644 20.252H132.644C132.644 19.2775 132.923 18.8394 133.224 18.5858L130.647 15.5262ZM128.644 20.252C128.644 22.5762 129.81 24.3952 131.799 25.5757L133.841 22.1363C132.928 21.5941 132.644 21.0105 132.644 20.252H128.644ZM131.799 25.5757C133.446 26.5537 135.884 27.5375 139.004 28.5469L140.235 24.7411C137.19 23.7559 135.095 22.881 133.841 22.1363L131.799 25.5757ZM138.979 28.5386C142.015 29.5655 144.414 30.5293 146.205 31.4249L147.994 27.8471C145.977 26.8387 143.39 25.8079 140.261 24.7494L138.979 28.5386ZM146.222 31.4331C147.881 32.2431 149.322 33.4235 150.551 35.0091L153.713 32.5589C152.131 30.5178 150.218 28.9329 147.977 27.8389L146.222 31.4331ZM150.551 35.0091C151.624 36.3933 152.24 38.2647 152.24 40.788H156.24C156.24 37.5993 155.451 34.8014 153.713 32.5589L150.551 35.0091ZM152.24 40.788C152.24 43.1433 151.637 45.2408 150.442 47.1307L153.822 49.2693C155.437 46.7165 156.24 43.8727 156.24 40.788H152.24ZM150.426 47.1557C149.286 49.0181 147.592 50.5457 145.253 51.7151L147.042 55.2929C149.962 53.8329 152.258 51.8245 153.837 49.2443L150.426 47.1557ZM145.253 51.7151C142.956 52.8639 140.169 53.476 136.832 53.476V57.476C140.657 57.476 144.081 56.7734 147.042 55.2929L145.253 51.7151ZM196.96 38.816V40.816H198.742L198.947 39.0452L196.96 38.816ZM170.644 38.816V36.816H168.484L168.65 38.9694L170.644 38.816ZM172.888 44.256L171.498 45.6948L171.524 45.7191L171.55 45.7426L172.888 44.256ZM183.904 42.42V40.42H182.626L182.089 41.5798L183.904 42.42ZM196.28 42.42L198.218 42.9134L198.853 40.42H196.28V42.42ZM192.812 49.152L191.281 47.8648L191.272 47.8751L191.264 47.8855L192.812 49.152ZM186.624 53.844L187.451 55.6647L186.624 53.844ZM168.332 53.164L167.372 54.9187L167.372 54.9187L168.332 53.164ZM161.532 46.364L163.281 45.395L163.281 45.395L161.532 46.364ZM161.464 25.692L159.714 24.723L159.708 24.7334L159.703 24.7438L161.464 25.692ZM168.264 18.892L169.223 20.6467L169.223 20.6467L168.264 18.892ZM188.052 18.824L187.102 20.584L187.102 20.584L188.052 18.824ZM194.716 25.42L192.967 26.3913L192.973 26.4018L192.979 26.4123L194.716 25.42ZM185.264 32.356V34.356H187.264V32.356H185.264ZM183.224 27.596L184.534 26.0846L184.534 26.0846L183.224 27.596ZM173.16 27.528L171.879 25.9916L171.866 26.0023L171.854 26.0132L173.16 27.528ZM170.712 32.356L168.734 32.0551L168.384 34.356H170.712V32.356ZM195.164 35.416C195.164 36.4209 195.101 37.4774 194.973 38.5868L198.947 39.0452C199.091 37.7972 199.164 36.5871 199.164 35.416H195.164ZM196.96 36.816H170.644V40.816H196.96V36.816ZM168.65 38.9694C168.857 41.6677 169.738 43.9953 171.498 45.6948L174.277 42.8172C173.408 41.978 172.793 40.679 172.638 38.6626L168.65 38.9694ZM171.55 45.7426C173.302 47.32 175.444 48.092 177.852 48.092V44.092C176.361 44.092 175.193 43.64 174.226 42.7694L171.55 45.7426ZM177.852 48.092C179.584 48.092 181.192 47.7249 182.578 46.8839C183.974 46.0372 185.01 44.7917 185.719 43.2602L182.089 41.5798C181.664 42.4963 181.125 43.0868 180.503 43.4641C179.872 43.8471 179.02 44.092 177.852 44.092V48.092ZM183.904 44.42H196.28V40.42H183.904V44.42ZM194.341 41.9266C193.782 44.1242 192.767 46.0976 191.281 47.8648L194.342 50.4392C196.211 48.2171 197.508 45.7025 198.218 42.9134L194.341 41.9266ZM191.264 47.8855C189.838 49.6278 188.028 51.0088 185.796 52.0233L187.451 55.6647C190.206 54.4125 192.521 52.6655 194.36 50.4185L191.264 47.8855ZM185.796 52.0233C183.593 53.0244 181.093 53.544 178.26 53.544V57.544C181.592 57.544 184.667 56.9302 187.451 55.6647L185.796 52.0233ZM178.26 53.544C174.835 53.544 171.863 52.8159 169.291 51.4093L167.372 54.9187C170.603 56.6855 174.249 57.544 178.26 57.544V53.544ZM169.291 51.4093C166.729 50.0079 164.733 48.0167 163.281 45.395L159.782 47.333C161.594 50.6046 164.132 53.1467 167.372 54.9187L169.291 51.4093ZM163.281 45.395C161.84 42.792 161.084 39.6912 161.084 36.028H157.084C157.084 40.2528 157.96 44.0427 159.782 47.333L163.281 45.395ZM161.084 36.028C161.084 32.3559 161.821 29.2475 163.225 26.6402L159.703 24.7438C157.933 28.0298 157.084 31.8121 157.084 36.028H161.084ZM163.213 26.661C164.665 24.0393 166.661 22.0481 169.223 20.6467L167.304 17.1373C164.064 18.9093 161.526 21.4514 159.714 24.723L163.213 26.661ZM169.223 20.6467C171.792 19.242 174.786 18.512 178.26 18.512V14.512C174.208 14.512 170.538 15.3686 167.304 17.1373L169.223 20.6467ZM178.26 18.512C181.644 18.512 184.574 19.2199 187.102 20.584L189.002 17.064C185.817 15.3454 182.219 14.512 178.26 14.512V18.512ZM187.102 20.584C189.619 21.9428 191.565 23.8666 192.967 26.3913L196.464 24.4487C194.693 21.2614 192.196 18.7879 189.002 17.064L187.102 20.584ZM192.979 26.4123C194.413 28.9213 195.164 31.9006 195.164 35.416H199.164C199.164 31.3154 198.282 27.6307 196.452 24.4277L192.979 26.4123ZM187.264 32.356C187.264 29.8518 186.383 27.6871 184.534 26.0846L181.914 29.1074C182.785 29.8623 183.264 30.8708 183.264 32.356H187.264ZM184.534 26.0846C182.761 24.5487 180.576 23.828 178.124 23.828V27.828C179.751 27.828 180.966 28.286 181.914 29.1074L184.534 26.0846ZM178.124 23.828C175.757 23.828 173.636 24.5278 171.879 25.9916L174.44 29.0644C175.404 28.2615 176.592 27.828 178.124 27.828V23.828ZM171.854 26.0132C170.104 27.5215 169.107 29.6038 168.734 32.0551L172.689 32.6569C172.951 30.9375 173.586 29.8011 174.466 29.0428L171.854 26.0132ZM170.712 34.356H185.264V30.356H170.712V34.356ZM224.446 45.14H226.446V43.14H224.446V45.14ZM224.446 55V57H226.446V55H224.446ZM208.67 51.94L207.345 53.438L207.353 53.4452L207.361 53.4523L208.67 51.94ZM205.134 26.712H207.134V24.712H205.134V26.712ZM200.51 26.712H198.51V28.712H200.51V26.712ZM200.51 17.056V15.056H198.51V17.056H200.51ZM205.134 17.056V19.056H207.134V17.056H205.134ZM205.134 7.808V5.808H203.134V7.808H205.134ZM216.762 7.808H218.762V5.808H216.762V7.808ZM216.762 17.056H214.762V19.056H216.762V17.056ZM224.378 17.056H226.378V15.056H224.378V17.056ZM224.378 26.712V28.712H226.378V26.712H224.378ZM216.762 26.712V24.712H214.762V26.712H216.762ZM217.578 44.392L216.227 45.8663L216.227 45.8663L217.578 44.392ZM222.446 45.14V55H226.446V45.14H222.446ZM224.446 53H218.53V57H224.446V53ZM218.53 53C214.624 53 211.862 52.0571 209.979 50.4277L207.361 53.4523C210.193 55.9029 214.004 57 218.53 57V53ZM209.995 50.442C208.24 48.8892 207.134 46.1848 207.134 41.808H203.134C203.134 46.7699 204.386 50.8202 207.345 53.438L209.995 50.442ZM207.134 41.808V26.712H203.134V41.808H207.134ZM205.134 24.712H200.51V28.712H205.134V24.712ZM202.51 26.712V17.056H198.51V26.712H202.51ZM200.51 19.056H205.134V15.056H200.51V19.056ZM207.134 17.056V7.808H203.134V17.056H207.134ZM205.134 9.808H216.762V5.808H205.134V9.808ZM214.762 7.808V17.056H218.762V7.808H214.762ZM216.762 19.056H224.378V15.056H216.762V19.056ZM222.378 17.056V26.712H226.378V17.056H222.378ZM224.378 24.712H216.762V28.712H224.378V24.712ZM214.762 26.712V41.944H218.762V26.712H214.762ZM214.762 41.944C214.762 43.3399 215.092 44.8258 216.227 45.8663L218.929 42.9177C218.977 42.9608 218.762 42.8147 218.762 41.944H214.762ZM216.227 45.8663C217.327 46.875 218.86 47.14 220.298 47.14V43.14C219.784 43.14 219.429 43.0885 219.196 43.0246C218.967 42.9616 218.912 42.902 218.929 42.9177L216.227 45.8663ZM220.298 47.14H224.446V43.14H220.298V47.14ZM264.719 21L263.237 22.343L263.242 22.3488L263.248 22.3546L264.719 21ZM268.663 55V57H270.663V55H268.663ZM257.103 55H255.103V57H257.103V55ZM255.131 28.48L253.67 29.8463L253.67 29.8463L255.131 28.48ZM244.523 28.48L245.984 29.8463L245.984 29.8463L244.523 28.48ZM242.551 55V57H244.551V55H242.551ZM230.923 55H228.923V57H230.923V55ZM230.923 4.68V2.68H228.923V4.68H230.923ZM242.551 4.68H244.551V2.68H242.551V4.68ZM242.551 22.156H240.551V28.4807L244.187 23.3059L242.551 22.156ZM247.379 18.144L246.501 16.3472L246.501 16.3472L247.379 18.144ZM254.247 18.648C258.105 18.648 261.031 19.9093 263.237 22.343L266.201 19.657C263.148 16.288 259.094 14.648 254.247 14.648V18.648ZM263.248 22.3546C265.446 24.7423 266.663 28.1487 266.663 32.832H270.663C270.663 27.4513 269.251 22.9697 266.19 19.6454L263.248 22.3546ZM266.663 32.832V55H270.663V32.832H266.663ZM268.663 53H257.103V57H268.663V53ZM259.103 55V34.396H255.103V55H259.103ZM259.103 34.396C259.103 31.5162 258.352 28.9953 256.592 27.1137L253.67 29.8463C254.54 30.7753 255.103 32.1984 255.103 34.396H259.103ZM256.592 27.1137C254.839 25.2405 252.508 24.372 249.827 24.372V28.372C251.588 28.372 252.793 28.9088 253.67 29.8463L256.592 27.1137ZM249.827 24.372C247.146 24.372 244.815 25.2405 243.062 27.1137L245.984 29.8463C246.861 28.9088 248.066 28.372 249.827 28.372V24.372ZM243.062 27.1137C241.302 28.9953 240.551 31.5162 240.551 34.396H244.551C244.551 32.1984 245.114 30.7753 245.984 29.8463L243.062 27.1137ZM240.551 34.396V55H244.551V34.396H240.551ZM242.551 53H230.923V57H242.551V53ZM232.923 55V4.68H228.923V55H232.923ZM230.923 6.68H242.551V2.68H230.923V6.68ZM240.551 4.68V22.156H244.551V4.68H240.551ZM244.187 23.3059C245.152 21.9335 246.487 20.8062 248.257 19.9408L246.501 16.3472C244.191 17.4765 242.308 19.0238 240.915 21.0061L244.187 23.3059ZM248.257 19.9408C249.993 19.0922 251.977 18.648 254.247 18.648V14.648C251.44 14.648 248.845 15.2011 246.501 16.3472L248.257 19.9408Z" fill="#0B40F9"/>
</svg>
